<svg xmlns="http://www.w3.org/2000/svg" xmlns:xlink="http://www.w3.org/1999/xlink" width="2000" zoomAndPan="magnify" viewBox="0 0 1500 1499.999933" height="2000" preserveAspectRatio="xMidYMid meet" version="1.0"><defs><clipPath id="220d4fe492"><path d="M 302.824219 111.175781 L 1196.824219 111.175781 L 1196.824219 1389 L 302.824219 1389 Z M 302.824219 111.175781 " clip-rule="nonzero"/></clipPath></defs><g clip-path="url(#220d4fe492)"><path fill="#6c0505" d="M 750 111.175781 C 503.097656 111.175781 302.828125 311.445312 302.828125 558.347656 C 302.828125 893.726562 750 1388.8125 750 1388.8125 C 750 1388.8125 1197.171875 893.726562 1197.171875 558.347656 C 1197.171875 311.445312 996.902344 111.175781 750 111.175781 Z M 750 718.054688 C 661.84375 718.054688 590.292969 646.503906 590.292969 558.347656 C 590.292969 470.191406 661.84375 398.644531 750 398.644531 C 838.15625 398.644531 909.703125 470.191406 909.703125 558.347656 C 909.703125 646.503906 838.15625 718.054688 750 718.054688 Z M 750 718.054688 " fill-opacity="1" fill-rule="nonzero"/></g></svg>